Coordinates
version=1
nRows=5
nColumns=63
inDegrees=yes

Units are S.I. units (second, meters, Newtons, ...)
If the header above contains a line with 'inDegrees', this indicates whether rotational values are in degrees (yes) or radians (no).

endheader
time	pelvis_tilt	pelvis_list	pelvis_rotation	pelvis_tx	pelvis_ty	pelvis_tz	hip_flexion_r	hip_adduction_r	hip_rotation_r	knee_angle_r	knee_angle_r_beta	ankle_angle_r	subtalar_angle_r	mtp_angle_r	hip_flexion_l	hip_adduction_l	hip_rotation_l	knee_angle_l	knee_angle_l_beta	ankle_angle_l	subtalar_angle_l	mtp_angle_l	L5_S1_Flex_Ext	L5_S1_Lat_Bending	L5_S1_axial_rotation	L4_L5_Flex_Ext	L4_L5_Lat_Bending	L4_L5_axial_rotation	L3_L4_Flex_Ext	L3_L4_Lat_Bending	L3_L4_axial_rotation	L2_L3_Flex_Ext	L2_L3_Lat_Bending	L2_L3_axial_rotation	L1_L2_Flex_Ext	L1_L2_Lat_Bending	L1_L2_axial_rotation	L1_T12_Flex_Ext	L1_T12_Lat_Bending	L1_T12_axial_rotation	Abs_r3	Abs_r2	Abs_r1	Abs_t1	Abs_t2	neck_flexion	neck_bending	neck_rotation	arm_flex_r	arm_add_r	arm_rot_r	elbow_flex_r	pro_sup_r	wrist_flex_r	wrist_dev_r	arm_flex_l	arm_add_l	arm_rot_l	elbow_flex_l	pro_sup_l	wrist_flex_l	wrist_dev_l
     11.24200000	    -56.33885722	     -9.83456102	      3.59675327	     -0.27953606	      1.06660727	     -0.04424848	    104.03339669	    -10.63123144	    -14.72166792	     59.03435874	      1.03034393	      7.37571558	     -0.38030091	      0.00000000	    111.45010290	     -0.50283928	      9.75561135	     98.15814695	      1.71318285	      6.78348524	     -6.71263598	      0.00000000	     -0.09190026	      1.56392476	     -0.58129355	     -0.17066796	      2.08001993	     -0.61762440	     -0.15098293	      3.80252666	     -0.61762440	     -0.10503280	      3.80252666	     -0.50863186	     -0.08533858	      3.18915537	     -0.47230101	     -0.05251181	      2.42251946	     -0.43597017	     -0.65643433	     17.69142969	     -3.23298036	      0.00000000	      0.00000000	     -0.00000000	      0.00000000	      0.00000000	     64.53568787	    -15.03583625	     22.61959071	     41.25927603	     25.52630261	      0.00000000	      5.00000014	     58.95895783	     -9.62676665	      7.04003406	     43.98712563	     32.51487446	      0.00000000	      5.00000014
     11.25000000	    -56.30109381	     -9.74305654	      3.45646556	     -0.27901280	      1.06599062	     -0.04390407	    102.95294530	    -10.20551690	    -14.91646044	     57.53821860	      1.00423136	      6.54111667	     -0.46799486	      0.00000000	    112.51731372	     -0.73680983	      9.65213979	     99.71641411	      1.74037974	      7.51030083	     -6.86006138	      0.00000000	     -0.09228736	      1.54349908	     -0.56920851	     -0.17138685	      2.05285377	     -0.60478404	     -0.15161890	      3.75286365	     -0.60478404	     -0.10547522	      3.75286365	     -0.49805745	     -0.08569804	      3.14750331	     -0.46248192	     -0.05273300	      2.39088007	     -0.42690638	     -0.65919935	     17.46037024	     -3.16576698	      0.00000000	      0.00000000	     -0.00000000	      0.00000000	      0.00000000	     64.36649713	    -14.95284247	     22.48768348	     41.34382503	     25.47210081	      0.00000000	      5.00000014	     58.94529375	     -9.73001711	      7.09278909	     44.05635375	     32.49466758	      0.00000000	      5.00000014
     11.25800000	    -56.25980471	     -9.77939186	      3.14497505	     -0.27834719	      1.06522526	     -0.04341682	    101.84666873	     -9.59958694	    -15.23418005	     56.09628293	      0.97906484	      5.56759062	     -0.78659257	      0.00000000	    113.67596516	     -1.07762202	      9.73984152	    101.33445652	      1.76861991	      8.13479501	     -6.84024566	      0.00000000	     -0.09225493	      1.53969900	     -0.51954039	     -0.17132663	      2.04779967	     -0.55201167	     -0.15156562	      3.74362414	     -0.55201167	     -0.10543816	      3.74362414	     -0.45459784	     -0.08566793	      3.13975420	     -0.42212657	     -0.05271447	      2.38499375	     -0.38965530	     -0.65896772	     17.41738301	     -2.88952781	      0.00000000	      0.00000000	     -0.00000000	      0.00000000	      0.00000000	     64.19186321	    -14.92692700	     22.26591737	     41.42289799	     25.37912055	      0.00000000	      5.00000014	     58.89768361	     -9.76258148	      7.20197777	     44.12471080	     32.46054938	      0.00000000	      5.00000014
     11.26700000	    -56.20331632	     -9.68547137	      3.18890021	     -0.27781482	      1.06458928	     -0.04336413	    100.72440096	     -9.33779549	    -15.38071604	     54.62795380	      0.95343766	      4.87928320	     -0.83464055	      0.00000000	    114.76139113	     -1.13536940	      9.50633145	    102.69483101	      1.79236293	      8.43552077	     -6.80445879	      0.00000000	     -0.09210439	      1.51861012	     -0.53916562	     -0.17104706	      2.01975146	     -0.57286347	     -0.15131830	      3.69234865	     -0.57286347	     -0.10526610	      3.69234865	     -0.47176992	     -0.08552813	      3.09674976	     -0.43807207	     -0.05262845	      2.35232708	     -0.40437421	     -0.65789242	     17.17882144	     -2.99867742	      0.00000000	      0.00000000	     -0.00000000	      0.00000000	      0.00000000	     64.05427104	    -14.85832619	     22.20123678	     41.43939027	     25.33872631	      0.00000000	      5.00000014	     58.89912330	     -9.86417583	      7.25852772	     44.20259888	     32.44663484	      0.00000000	      5.00000014
     11.27500000	    -56.14771592	     -9.84751344	      2.83653533	     -0.27697941	      1.06375818	     -0.04286548	     99.54348771	     -8.65972681	    -15.78226838	     53.16044706	      0.92782483	      3.84614343	     -1.24195505	      0.00000000	    115.98706541	     -1.45686266	      9.70351429	    104.20298725	      1.81868522	      8.64154199	     -6.53500785	      0.00000000	     -0.09002049	      1.53123463	     -0.48232834	     -0.16717705	      2.03654206	     -0.51247386	     -0.14789466	      3.72304388	     -0.51247386	     -0.10288442	      3.72304388	     -0.42203730	     -0.08359303	      3.12249366	     -0.39189178	     -0.05143771	      2.37188244	     -0.36174626	     -0.64300737	     17.32163240	     -2.68256554	      0.00000000	      0.00000000	     -0.00000000	      0.00000000	      0.00000000	     63.88727779	    -14.87447032	     22.06664644	     41.46375215	     25.23030191	      0.00000000	      5.00000014	     58.79474547	     -9.89380507	      7.42831301	     44.24981684	     32.40359222	      0.00000000	      5.00000014
